<?xml version="1.0" encoding="UTF-8"?>
<svg width="701px" height="701px" viewBox="0 0 98 98" version="1.1" xmlns="http://www.w3.org/2000/svg" xmlns:xlink="http://www.w3.org/1999/xlink">
    <!-- Generator: Sketch 60.1 (88133) - https://sketch.com -->
    <title>tray@2x</title>
    <desc>Created with Sketch.</desc>
    <defs>
        <polygon id="path-1" points="0 0.009 95.671 0.009 95.671 95.9995 0 95.9995"></polygon>
    </defs>
    <g id="tray" stroke="none" stroke-width="1" fill="none" fill-rule="evenodd">
        <g id="Group">
            <path d="M10.5276949,27.6399251 L5.17148312,97.5 L90.1582676,97.5 L87.6538803,6.40351837 L88.1971942,4.29655823 C84.0441476,2.86059968 81.9676243,2.1426204 81.9676243,2.1426204 C81.9676243,2.1426204 68.3875272,2.1426204 41.227333,2.1426204 L13.090157,2.1426204 L7.2806981,4.29655823 L10.5276949,27.6399251 Z" id="Path" fill="#232323"></path>
            <g id="Group-3-Copy">
                <g id="01---Flipkart-Branding/logo/white" transform="translate(0.000000, 0.500000)">
                    <g id="brand/logo/white">
                        <g id="Group-3" transform="translate(0.000000, 0.991200)">
                            <mask id="mask-2" fill="white">
                                <use xlink:href="#path-1"></use>
                            </mask>
                            <g id="Clip-2"></g>
                            <path d="M85.3706,3.7275 C84.5916,4.0745 84.1926,4.5975 83.9956,5.1355 C83.9786,5.1795 83.9696,5.2215 83.9586,5.2595 C83.9526,5.2675 83.9526,5.2815 83.9476,5.2855 C83.9366,5.3215 83.9256,5.3545 83.9256,5.3865 C83.9156,5.4085 83.9156,5.4165 83.9106,5.4345 C83.9046,5.4665 83.8936,5.4935 83.8936,5.5185 C83.8886,5.5395 83.8846,5.5685 83.8796,5.5875 C83.8796,5.6085 83.8726,5.6265 83.8726,5.6475 C83.8676,5.6735 83.8626,5.7065 83.8576,5.7385 C83.8576,5.7485 83.8576,5.7635 83.8506,5.7755 C83.8506,5.8065 83.8506,5.8335 83.8456,5.8675 L83.8196,5.8485 L83.8196,14.7175 L11.8466,14.7165 L11.8466,5.8485 L11.8256,5.8675 C11.7616,5.1075 11.4306,4.2285 10.2956,3.7275 L7.7256,2.9075 L12.6246,1.1775 C13.3656,0.8565 14.4566,0.8505 14.4566,0.8505 L81.2196,0.8525 C81.2196,0.8525 82.1956,0.8405 83.1596,1.1595 L87.9496,2.9035 L85.3706,3.7275 Z M69.6546,22.6145 C69.3086,26.9325 67.3266,30.8965 63.9636,33.8805 C59.9566,37.4415 54.3566,39.3215 47.7686,39.3215 C42.0296,39.3215 36.5626,37.4015 32.3516,33.9115 C28.6176,30.8105 26.3136,26.7655 25.8986,22.6365 C25.0616,22.3155 24.4656,21.5125 24.4656,20.5675 C24.4656,19.3435 25.4726,18.3445 26.7086,18.3445 C27.9456,18.3445 28.9526,19.3435 28.9526,20.5675 C28.9526,20.7885 28.9146,20.9955 28.8556,21.1935 L28.8556,21.4205 C28.8556,29.4675 37.6706,36.3675 47.7686,36.3675 C60.7676,36.3675 66.5956,28.5815 66.6166,21.3255 C66.5156,21.0685 66.4576,20.7885 66.4576,20.4945 C66.4576,19.2245 67.4916,18.2035 68.7696,18.2035 C70.0486,18.2035 71.0836,19.2245 71.0836,20.4945 C71.0836,21.4535 70.4966,22.2735 69.6546,22.6145 L69.6546,22.6145 Z M88.7646,9.5425 L88.7646,2.6415 L88.7596,2.6415 C88.7596,2.4875 88.6376,2.3055 88.2316,2.1455 L83.1546,0.2455 C83.1546,0.2455 82.5726,0.0085 81.2196,0.0085 L14.4566,0.0085 C13.0996,0.0085 12.5166,0.2435 12.5166,0.2435 L7.4396,2.1455 C7.0346,2.3055 6.9066,2.4875 6.9066,2.6415 L6.9066,9.5425 L-0.0004,14.7165 L-0.0004,90.7785 C-0.0004,93.6615 2.3766,95.9995 5.3126,95.9995 L45.9946,95.9995 L48.7656,80.6425 L38.0536,80.6425 C37.8086,80.6425 7.3856,79.5115 7.3856,79.5115 L35.5706,77.9825 L35.1986,76.2605 L25.7376,74.9135 L34.7386,74.1665 L34.1426,72.0575 L19.4456,69.8675 C19.4456,69.8675 35.4156,68.1075 35.6626,68.1075 L51.1106,68.1075 L52.2876,61.8405 C53.6736,54.2515 56.8066,48.6475 61.7216,44.4745 C66.6596,40.2855 72.9266,38.2175 80.5376,38.2175 C83.6106,38.2175 85.5676,38.9215 86.4196,40.3975 C86.9846,41.2725 87.3906,42.8225 87.7526,44.4365 C88.1096,46.0875 88.4236,47.5855 88.2106,48.6855 C87.9396,50.3055 86.0096,50.8735 82.4866,50.8735 L81.2786,50.8735 C74.9306,50.8735 71.0836,54.4625 69.7826,61.7345 L68.6206,68.1075 L75.9806,68.1075 C78.7246,68.1075 79.7156,70.0005 78.9536,74.2465 C78.1396,78.6755 76.3806,80.6425 73.6406,80.6425 L66.2936,80.6425 L63.5476,95.9995 L90.3536,95.9995 C93.2886,95.9995 95.6716,93.6615 95.6716,90.7795 L95.6716,14.7175 L88.7646,9.5425 Z M27.9456,5.2265 C25.5946,5.2265 25.4876,7.3215 25.4776,7.3695 C25.4876,8.7225 26.5856,9.8185 27.9456,9.8185 C29.2986,9.8185 30.4016,8.7265 30.4076,7.3735 C30.4016,7.2935 30.2526,5.2265 27.9456,5.2265 L27.9456,5.2265 Z M67.7206,5.2265 C65.3706,5.2265 65.2636,7.3215 65.2586,7.3695 C65.2586,8.7225 66.3606,9.8185 67.7206,9.8185 C69.0796,9.8185 70.1766,8.7265 70.1826,7.3735 C70.1766,7.2935 70.0276,5.2265 67.7206,5.2265 L67.7206,5.2265 Z" id="Fill-1" fill="#FFFFFF" mask="url(#mask-2)"></path>
                        </g>
                        <path d="M27.9868,5.9883 C29.3678,5.9883 30.4868,7.1183 30.4868,8.5203 C30.4868,9.9043 29.3678,11.0353 27.9868,11.0353 C26.6018,11.0353 25.4778,9.9043 25.4778,8.5203 C25.4778,7.1183 26.6018,5.9883 27.9868,5.9883" id="Fill-4" fill="#FFFFFF"></path>
                        <path d="M67.7207,5.9883 C69.1007,5.9883 70.2257,7.1183 70.2257,8.5203 C70.2257,9.9043 69.1007,11.0353 67.7207,11.0353 C66.3417,11.0353 65.2157,9.9043 65.2157,8.5203 C65.2157,7.1183 66.3417,5.9883 67.7207,5.9883" id="Fill-6" fill="#FFFFFF"></path>
                    </g>
                </g>
            </g>
            <path d="M0.5,16.5136198 L0.5,97.5 L95.5,97.5 L95.5,16.5300167 L88.4497445,10.5537716 L88.4497445,3.87585199 L82.410754,1 L13.2622454,1 L6.8154976,3.8842216 L6.8154976,10.5373747 L0.5,16.5136198 Z" id="Path-2" stroke="#232323"></path>
        </g>
    </g>
</svg>
